<?xml version="1.0" encoding="iso-8859-1"?>
<!-- Generator: Adobe Illustrator 21.1.0, SVG Export Plug-In . SVG Version: 6.00 Build 0)  -->
<svg version="1.1" id="Layer_1" xmlns="http://www.w3.org/2000/svg" xmlns:xlink="http://www.w3.org/1999/xlink" x="0px" y="0px"
	 viewBox="0 0 100.353 100.353" style="enable-background:new 0 0 100.353 100.353;" xml:space="preserve">
<g>
	<path d="M71.064,20.533c-6.576-1.438-13.508,4.625-15.454,13.518c-0.178,0.809,0.335,1.609,1.144,1.786
		c0.108,0.023,0.217,0.035,0.322,0.035c0.689,0,1.311-0.479,1.464-1.18c1.594-7.277,6.934-12.313,11.884-11.229
		c0.811,0.18,1.608-0.335,1.786-1.145C72.387,21.509,71.874,20.709,71.064,20.533z"/>
	<path d="M79.709,12.76c-5.285-2.451-11.464-2.075-17.402,1.059c-3.066,1.618-5.868,3.891-8.295,6.643
		C50.162,9.589,41.265,2.492,32.014,3.313C20.201,4.355,11.679,17.604,13.019,32.849c1.089,12.363,8.133,22.608,17.299,25.375
		l0.786,8.923c0.069,0.78,0.724,1.368,1.493,1.368c0.044,0,0.088-0.002,0.133-0.006l3.152-0.277
		c-0.801,2.718-1.853,8.112,0.683,12.424c2.408,4.093,0.712,9.283,0.074,11.236c-0.109,0.334-0.191,0.593-0.235,0.765
		c-0.204,0.803,0.281,1.619,1.084,1.823c0.124,0.031,0.249,0.046,0.371,0.046c0.67,0,1.28-0.451,1.453-1.131
		c0.033-0.128,0.098-0.321,0.18-0.571c0.753-2.306,2.753-8.431-0.34-13.689c-2.384-4.053-0.51-9.84-0.019-11.188l3.561-0.313
		c0.825-0.072,1.436-0.8,1.363-1.625l-0.783-8.923c1.458-0.742,2.83-1.707,4.106-2.868c0.897,1.976,2.051,3.773,3.487,5.298
		l-3.769,8.125c-0.167,0.36-0.185,0.773-0.047,1.146c0.137,0.374,0.417,0.678,0.777,0.846l2.826,1.31
		c-0.689,1.914-2.7,8.524,0.297,13.616c2.405,4.094,0.712,9.282,0.074,11.235c-0.109,0.335-0.192,0.596-0.235,0.768
		c-0.204,0.803,0.282,1.618,1.086,1.822c0.123,0.031,0.247,0.046,0.369,0.046c0.67,0,1.281-0.452,1.453-1.132
		c0.032-0.128,0.098-0.322,0.18-0.573c0.752-2.305,2.75-8.427-0.341-13.687c-2.21-3.757-0.761-9.005-0.146-10.827l3.514,1.629
		c0.204,0.094,0.419,0.139,0.63,0.139c0.566,0,1.108-0.321,1.361-0.869l3.768-8.124c9.564,0.493,19.673-6.751,24.888-17.997
		C93.986,33.103,90.469,17.748,79.709,12.76z M41.092,54.795c-0.594,0.256-0.957,0.864-0.9,1.508l0.744,8.473l-6.975,0.613
		l-0.747-8.473c-0.057-0.645-0.521-1.181-1.151-1.328c-8.301-1.949-15.053-11.623-16.056-23.002
		C14.812,18.989,22.111,7.198,32.277,6.301c8.381-0.739,16.477,6.388,19.492,17.011c-1.223,1.732-2.326,3.589-3.249,5.581
		c-3.509,7.565-4.195,15.636-2.283,22.238C44.685,52.745,42.961,53.988,41.092,54.795z M84.828,45.727
		c-4.799,10.35-14.43,17.161-22.914,16.187c-0.646-0.074-1.26,0.272-1.531,0.859l-3.577,7.714l-6.355-2.946l3.578-7.716
		c0.272-0.587,0.138-1.283-0.335-1.726c-6.226-5.832-7.257-17.584-2.452-27.946c0.938-2.022,2.069-3.894,3.335-5.615
		c0.05-0.061,0.097-0.123,0.137-0.191c2.507-3.354,5.574-6.072,8.994-7.876c5.093-2.686,10.327-3.037,14.74-0.99
		C87.706,19.774,90.569,33.343,84.828,45.727z"/>
</g>
</svg>
