<?xml version="1.0" encoding="iso-8859-1"?>
<!-- Generator: Adobe Illustrator 21.1.0, SVG Export Plug-In . SVG Version: 6.00 Build 0)  -->
<svg version="1.1" id="Layer_1" xmlns="http://www.w3.org/2000/svg" xmlns:xlink="http://www.w3.org/1999/xlink" x="0px" y="0px"
	 viewBox="0 0 100.353 100.353" style="enable-background:new 0 0 100.353 100.353;" xml:space="preserve">
<g>
	<path d="M13.08,46.799c0.418,0,0.834-0.174,1.13-0.513c0.545-0.624,0.481-1.572-0.143-2.117L3.125,34.615
		c-0.624-0.545-1.571-0.48-2.117,0.143c-0.545,0.624-0.481,1.572,0.143,2.117l10.942,9.554
		C12.378,46.677,12.729,46.799,13.08,46.799z"/>
	<path d="M23.185,37.283c0.258,0.537,0.794,0.85,1.353,0.85c0.218,0,0.44-0.048,0.649-0.149c0.747-0.359,1.061-1.255,0.701-2.002
		l-6.298-13.09c-0.358-0.746-1.257-1.059-2.002-0.701c-0.747,0.359-1.061,1.255-0.701,2.002L23.185,37.283z"/>
	<path d="M99.168,87.347V27.179c0-0.018-0.006-0.035-0.006-0.053c-0.003-0.077-0.013-0.153-0.027-0.229
		c-0.006-0.033-0.011-0.066-0.019-0.099c-0.021-0.08-0.052-0.158-0.087-0.236c-0.01-0.021-0.013-0.044-0.024-0.065
		c-0.003-0.006-0.011-0.021-0.015-0.028c0-0.001-0.001-0.001-0.001-0.002c-0.001-0.001-0.003-0.006-0.004-0.008
		c-0.507-0.978-8.687-16.032-30.561-16.032c-23.337,0-30.37,15.492-30.657,16.152c-0.083,0.189-0.125,0.394-0.125,0.6v9.825
		c-14.582,1.705-25.004,16.713-25.466,17.389c-0.348,0.51-0.348,1.182,0,1.691c0.462,0.676,10.884,15.684,25.466,17.389v14.597
		c0,0.828,0.671,1.5,1.5,1.5h58.722c0.828,0,1.5-0.672,1.5-1.5C99.362,87.807,99.288,87.563,99.168,87.347z M91.033,22.984
		c2.599,0.748,4.557,3.661,5.135,4.605v58.275l-18.407-7.297V37.972c0.183-1.032,1.995-10.124,9.794-14.505
		C88.731,22.806,89.87,22.648,91.033,22.984z M15.274,55.24c2.452-3.219,11.878-14.53,23.7-15.348
		c0.055,0.006,0.109,0.017,0.166,0.017c0.118,0,0.232-0.017,0.342-0.043c0.278-0.012,0.556-0.025,0.836-0.025
		c11.18,0.001,20.67,12.102,23.047,15.399c-2.377,3.297-11.867,15.398-23.047,15.398C27.871,70.638,17.818,58.579,15.274,55.24z
		 M40.64,73.626c14.352-0.247,25.347-16.855,25.811-17.568c0.324-0.498,0.324-1.141,0-1.639C65.987,53.708,54.992,37.1,40.64,36.852
		v-9.336c1.007-2.024,7.85-14.089,27.783-14.089c9.57,0,16.26,3.1,20.689,6.429c-1.019,0.109-2.031,0.437-3.026,0.996
		c-9.545,5.36-11.242,16.316-11.31,16.78c-0.011,0.072-0.016,0.144-0.016,0.216v41.736c0,0.615,0.375,1.168,0.947,1.395
		l14.106,5.592H40.64V73.626z"/>
	<path d="M82.149,51.708c-0.828,0-1.5,0.672-1.5,1.5v4.373c0,0.828,0.672,1.5,1.5,1.5s1.5-0.672,1.5-1.5v-4.373
		C83.649,52.38,82.978,51.708,82.149,51.708z"/>
	<path d="M49.764,55.241c0-6.03-4.693-10.935-10.461-10.935c-5.768,0-10.461,4.905-10.461,10.935c0,6.03,4.693,10.936,10.461,10.936
		C45.071,66.176,49.764,61.271,49.764,55.241z M39.303,63.176c-4.114,0-7.461-3.56-7.461-7.936c0-4.375,3.347-7.935,7.461-7.935
		c4.114,0,7.461,3.56,7.461,7.935C46.764,59.616,43.417,63.176,39.303,63.176z"/>
</g>
</svg>
